<?xml version="1.0" encoding="UTF-8" standalone="no"?><svg xmlns="http://www.w3.org/2000/svg" xmlns:xlink="http://www.w3.org/1999/xlink" contentStyleType="text/css" height="696px" preserveAspectRatio="none" style="width:1278px;height:696px;background:#FFFFFF;" version="1.1" viewBox="0 0 1278 696" width="1278px" zoomAndPan="magnify"><defs/><g><rect fill="#FFFFFF" height="535.6968" style="stroke:#181818;stroke-width:1.0;" width="10" x="54.5" y="83.1184"/><rect fill="#FFFFFF" height="497.8504" style="stroke:#181818;stroke-width:1.0;" width="10" x="151" y="120.9648"/><rect fill="#FFFFFF" height="432.1575" style="stroke:#181818;stroke-width:1.0;" width="10" x="305" y="153.8113"/><rect fill="#FFFFFF" height="366.4646" style="stroke:#181818;stroke-width:1.0;" width="10" x="524" y="186.6577"/><rect fill="#FFFFFF" height="300.7717" style="stroke:#181818;stroke-width:1.0;" width="10" x="725" y="219.5042"/><rect fill="#FFFFFF" height="227.0787" style="stroke:#181818;stroke-width:1.0;" width="10" x="730" y="260.3507"/><rect fill="#FFFFFF" height="189.2323" style="stroke:#181818;stroke-width:1.0;" width="10" x="891" y="298.1971"/><rect fill="#FFFFFF" height="123.5394" style="stroke:#181818;stroke-width:1.0;" width="10" x="1061" y="331.0436"/><rect fill="#FFFFFF" height="49.8465" style="stroke:#181818;stroke-width:1.0;" width="10" x="1066" y="371.89"/><rect fill="#FFFFFF" height="12" style="stroke:#181818;stroke-width:1.0;" width="10" x="1218" y="409.7365"/><line style="stroke:#181818;stroke-width:0.5;stroke-dasharray:5.0,5.0;" x1="59" x2="59" y1="40.2719" y2="657.6617"/><line style="stroke:#181818;stroke-width:0.5;stroke-dasharray:5.0,5.0;" x1="156" x2="156" y1="40.2719" y2="657.6617"/><line style="stroke:#181818;stroke-width:0.5;stroke-dasharray:5.0,5.0;" x1="310" x2="310" y1="40.2719" y2="657.6617"/><line style="stroke:#181818;stroke-width:0.5;stroke-dasharray:5.0,5.0;" x1="529" x2="529" y1="40.2719" y2="657.6617"/><line style="stroke:#181818;stroke-width:0.5;stroke-dasharray:5.0,5.0;" x1="730" x2="730" y1="40.2719" y2="657.6617"/><line style="stroke:#181818;stroke-width:0.5;stroke-dasharray:5.0,5.0;" x1="896" x2="896" y1="40.2719" y2="657.6617"/><line style="stroke:#181818;stroke-width:0.5;stroke-dasharray:5.0,5.0;" x1="1066" x2="1066" y1="40.2719" y2="657.6617"/><line style="stroke:#181818;stroke-width:0.5;stroke-dasharray:5.0,5.0;" x1="1223" x2="1223" y1="40.2719" y2="657.6617"/><rect fill="#E2E2F0" height="34.2719" rx="2.5" ry="2.5" style="stroke:#181818;stroke-width:0.5;" width="109" x="5" y="5"/><text fill="#000000" font-family="sans-serif" font-size="14" lengthAdjust="spacing" textLength="95" x="12" y="28.2399">TestReflection</text><rect fill="#E2E2F0" height="34.2719" rx="2.5" ry="2.5" style="stroke:#181818;stroke-width:0.5;" width="109" x="5" y="656.6617"/><text fill="#000000" font-family="sans-serif" font-size="14" lengthAdjust="spacing" textLength="95" x="12" y="679.9016">TestReflection</text><rect fill="#E2E2F0" height="34.2719" rx="2.5" ry="2.5" style="stroke:#181818;stroke-width:0.5;" width="64" x="124" y="5"/><text fill="#000000" font-family="sans-serif" font-size="14" lengthAdjust="spacing" textLength="50" x="131" y="28.2399">Method</text><rect fill="#E2E2F0" height="34.2719" rx="2.5" ry="2.5" style="stroke:#181818;stroke-width:0.5;" width="64" x="124" y="656.6617"/><text fill="#000000" font-family="sans-serif" font-size="14" lengthAdjust="spacing" textLength="50" x="131" y="679.9016">Method</text><rect fill="#E2E2F0" height="34.2719" rx="2.5" ry="2.5" style="stroke:#181818;stroke-width:0.5;" width="224" x="198" y="5"/><text fill="#000000" font-family="sans-serif" font-size="14" lengthAdjust="spacing" textLength="210" x="205" y="28.2399">DelegatingMethodAccessorImpl</text><rect fill="#E2E2F0" height="34.2719" rx="2.5" ry="2.5" style="stroke:#181818;stroke-width:0.5;" width="224" x="198" y="656.6617"/><text fill="#000000" font-family="sans-serif" font-size="14" lengthAdjust="spacing" textLength="210" x="205" y="679.9016">DelegatingMethodAccessorImpl</text><rect fill="#E2E2F0" height="34.2719" rx="2.5" ry="2.5" style="stroke:#181818;stroke-width:0.5;" width="194" x="432" y="5"/><text fill="#000000" font-family="sans-serif" font-size="14" lengthAdjust="spacing" textLength="180" x="439" y="28.2399">NativeMethodAccessorImpl</text><rect fill="#E2E2F0" height="34.2719" rx="2.5" ry="2.5" style="stroke:#181818;stroke-width:0.5;" width="194" x="432" y="656.6617"/><text fill="#000000" font-family="sans-serif" font-size="14" lengthAdjust="spacing" textLength="180" x="439" y="679.9016">NativeMethodAccessorImpl</text><rect fill="#E2E2F0" height="34.2719" rx="2.5" ry="2.5" style="stroke:#181818;stroke-width:0.5;" width="188" x="636" y="5"/><text fill="#000000" font-family="sans-serif" font-size="14" lengthAdjust="spacing" textLength="174" x="643" y="28.2399">MethodAccessorGenerator</text><rect fill="#E2E2F0" height="34.2719" rx="2.5" ry="2.5" style="stroke:#181818;stroke-width:0.5;" width="188" x="636" y="656.6617"/><text fill="#000000" font-family="sans-serif" font-size="14" lengthAdjust="spacing" textLength="174" x="643" y="679.9016">MethodAccessorGenerator</text><rect fill="#E2E2F0" height="34.2719" rx="2.5" ry="2.5" style="stroke:#181818;stroke-width:0.5;" width="124" x="834" y="5"/><text fill="#000000" font-family="sans-serif" font-size="14" lengthAdjust="spacing" textLength="110" x="841" y="28.2399">AccessController</text><rect fill="#E2E2F0" height="34.2719" rx="2.5" ry="2.5" style="stroke:#181818;stroke-width:0.5;" width="124" x="834" y="656.6617"/><text fill="#000000" font-family="sans-serif" font-size="14" lengthAdjust="spacing" textLength="110" x="841" y="679.9016">AccessController</text><rect fill="#E2E2F0" height="34.2719" rx="2.5" ry="2.5" style="stroke:#181818;stroke-width:0.5;" width="196" x="968" y="5"/><text fill="#000000" font-family="sans-serif" font-size="14" lengthAdjust="spacing" textLength="182" x="975" y="28.2399">MethodAccessorGenerator1</text><rect fill="#E2E2F0" height="34.2719" rx="2.5" ry="2.5" style="stroke:#181818;stroke-width:0.5;" width="196" x="968" y="656.6617"/><text fill="#000000" font-family="sans-serif" font-size="14" lengthAdjust="spacing" textLength="182" x="975" y="679.9016">MethodAccessorGenerator1</text><rect fill="#E2E2F0" height="34.2719" rx="2.5" ry="2.5" style="stroke:#181818;stroke-width:0.5;" width="98" x="1174" y="5"/><text fill="#000000" font-family="sans-serif" font-size="14" lengthAdjust="spacing" textLength="84" x="1181" y="28.2399">ClassDefiner</text><rect fill="#E2E2F0" height="34.2719" rx="2.5" ry="2.5" style="stroke:#181818;stroke-width:0.5;" width="98" x="1174" y="656.6617"/><text fill="#000000" font-family="sans-serif" font-size="14" lengthAdjust="spacing" textLength="84" x="1181" y="679.9016">ClassDefiner</text><rect fill="#FFFFFF" height="535.6968" style="stroke:#181818;stroke-width:1.0;" width="10" x="54.5" y="83.1184"/><rect fill="#FFFFFF" height="497.8504" style="stroke:#181818;stroke-width:1.0;" width="10" x="151" y="120.9648"/><rect fill="#FFFFFF" height="432.1575" style="stroke:#181818;stroke-width:1.0;" width="10" x="305" y="153.8113"/><rect fill="#FFFFFF" height="366.4646" style="stroke:#181818;stroke-width:1.0;" width="10" x="524" y="186.6577"/><rect fill="#FFFFFF" height="300.7717" style="stroke:#181818;stroke-width:1.0;" width="10" x="725" y="219.5042"/><rect fill="#FFFFFF" height="227.0787" style="stroke:#181818;stroke-width:1.0;" width="10" x="730" y="260.3507"/><rect fill="#FFFFFF" height="189.2323" style="stroke:#181818;stroke-width:1.0;" width="10" x="891" y="298.1971"/><rect fill="#FFFFFF" height="123.5394" style="stroke:#181818;stroke-width:1.0;" width="10" x="1061" y="331.0436"/><rect fill="#FFFFFF" height="49.8465" style="stroke:#181818;stroke-width:1.0;" width="10" x="1066" y="371.89"/><rect fill="#FFFFFF" height="12" style="stroke:#181818;stroke-width:1.0;" width="10" x="1218" y="409.7365"/><line style="stroke:#181818;stroke-width:1.0;" x1="59.5" x2="106.5" y1="70.1184" y2="70.1184"/><line style="stroke:#181818;stroke-width:1.0;" x1="106.5" x2="106.5" y1="70.1184" y2="83.1184"/><line style="stroke:#181818;stroke-width:1.0;" x1="65.5" x2="106.5" y1="83.1184" y2="83.1184"/><polygon fill="#181818" points="75.5,79.1184,65.5,83.1184,75.5,87.1184,71.5,83.1184" style="stroke:#181818;stroke-width:1.0;"/><text fill="#000000" font-family="sans-serif" font-size="13" lengthAdjust="spacing" textLength="31" x="71.5" y="64.3699">main</text><polygon fill="#181818" points="139,116.9648,149,120.9648,139,124.9648,143,120.9648" style="stroke:#181818;stroke-width:1.0;"/><line style="stroke:#181818;stroke-width:1.0;" x1="64.5" x2="145" y1="120.9648" y2="120.9648"/><text fill="#000000" font-family="sans-serif" font-size="13" lengthAdjust="spacing" textLength="41" x="71.5" y="115.2164">invoke</text><polygon fill="#181818" points="293,149.8113,303,153.8113,293,157.8113,297,153.8113" style="stroke:#181818;stroke-width:1.0;"/><line style="stroke:#181818;stroke-width:1.0;" x1="161" x2="299" y1="153.8113" y2="153.8113"/><text fill="#000000" font-family="sans-serif" font-size="13" lengthAdjust="spacing" textLength="41" x="168" y="148.0628">invoke</text><polygon fill="#181818" points="512,182.6577,522,186.6577,512,190.6577,516,186.6577" style="stroke:#181818;stroke-width:1.0;"/><line style="stroke:#181818;stroke-width:1.0;" x1="315" x2="518" y1="186.6577" y2="186.6577"/><text fill="#000000" font-family="sans-serif" font-size="13" lengthAdjust="spacing" textLength="41" x="322" y="180.9093">invoke</text><polygon fill="#181818" points="713,215.5042,723,219.5042,713,223.5042,717,219.5042" style="stroke:#181818;stroke-width:1.0;"/><line style="stroke:#181818;stroke-width:1.0;" x1="534" x2="719" y1="219.5042" y2="219.5042"/><text fill="#000000" font-family="sans-serif" font-size="13" lengthAdjust="spacing" textLength="100" x="541" y="213.7557">generateMethod</text><line style="stroke:#181818;stroke-width:1.0;" x1="735" x2="782" y1="247.3507" y2="247.3507"/><line style="stroke:#181818;stroke-width:1.0;" x1="782" x2="782" y1="247.3507" y2="260.3507"/><line style="stroke:#181818;stroke-width:1.0;" x1="741" x2="782" y1="260.3507" y2="260.3507"/><polygon fill="#181818" points="751,256.3507,741,260.3507,751,264.3507,747,260.3507" style="stroke:#181818;stroke-width:1.0;"/><text fill="#000000" font-family="sans-serif" font-size="13" lengthAdjust="spacing" textLength="53" x="747" y="241.6022">generate</text><polygon fill="#181818" points="879,294.1971,889,298.1971,879,302.1971,883,298.1971" style="stroke:#181818;stroke-width:1.0;"/><line style="stroke:#181818;stroke-width:1.0;" x1="740" x2="885" y1="298.1971" y2="298.1971"/><text fill="#000000" font-family="sans-serif" font-size="13" lengthAdjust="spacing" textLength="77" x="747" y="292.4486">doPrivileged</text><polygon fill="#181818" points="1049,327.0436,1059,331.0436,1049,335.0436,1053,331.0436" style="stroke:#181818;stroke-width:1.0;"/><line style="stroke:#181818;stroke-width:1.0;" x1="901" x2="1055" y1="331.0436" y2="331.0436"/><text fill="#000000" font-family="sans-serif" font-size="13" lengthAdjust="spacing" textLength="21" x="908" y="325.2951">run</text><line style="stroke:#181818;stroke-width:1.0;" x1="1071" x2="1118" y1="358.89" y2="358.89"/><line style="stroke:#181818;stroke-width:1.0;" x1="1118" x2="1118" y1="358.89" y2="371.89"/><line style="stroke:#181818;stroke-width:1.0;" x1="1077" x2="1118" y1="371.89" y2="371.89"/><polygon fill="#181818" points="1087,367.89,1077,371.89,1087,375.89,1083,371.89" style="stroke:#181818;stroke-width:1.0;"/><text fill="#000000" font-family="sans-serif" font-size="13" lengthAdjust="spacing" textLength="21" x="1083" y="353.1416">run</text><polygon fill="#181818" points="1206,405.7365,1216,409.7365,1206,413.7365,1210,409.7365" style="stroke:#181818;stroke-width:1.0;"/><line style="stroke:#181818;stroke-width:1.0;" x1="1076" x2="1212" y1="409.7365" y2="409.7365"/><text fill="#000000" font-family="sans-serif" font-size="13" lengthAdjust="spacing" textLength="69" x="1083" y="403.988">defineClass</text><polygon fill="#181818" points="1082,417.7365,1072,421.7365,1082,425.7365,1078,421.7365" style="stroke:#181818;stroke-width:1.0;"/><line style="stroke:#181818;stroke-width:1.0;stroke-dasharray:2.0,2.0;" x1="1076" x2="1222" y1="421.7365" y2="421.7365"/><text fill="#000000" font-family="sans-serif" font-size="13" lengthAdjust="spacing" textLength="69" x="1088" y="437.8345">defineClass</text><polygon fill="#181818" points="912,450.5829,902,454.5829,912,458.5829,908,454.5829" style="stroke:#181818;stroke-width:1.0;"/><line style="stroke:#181818;stroke-width:1.0;stroke-dasharray:2.0,2.0;" x1="906" x2="1065" y1="454.5829" y2="454.5829"/><text fill="#000000" font-family="sans-serif" font-size="13" lengthAdjust="spacing" textLength="21" x="918" y="470.6809">run</text><polygon fill="#181818" points="746,483.4294,736,487.4294,746,491.4294,742,487.4294" style="stroke:#181818;stroke-width:1.0;"/><line style="stroke:#181818;stroke-width:1.0;stroke-dasharray:2.0,2.0;" x1="740" x2="895" y1="487.4294" y2="487.4294"/><text fill="#000000" font-family="sans-serif" font-size="13" lengthAdjust="spacing" textLength="77" x="752" y="503.5274">doPrivileged</text><polygon fill="#181818" points="545,516.2758,535,520.2758,545,524.2758,541,520.2758" style="stroke:#181818;stroke-width:1.0;"/><line style="stroke:#181818;stroke-width:1.0;stroke-dasharray:2.0,2.0;" x1="539" x2="729" y1="520.2758" y2="520.2758"/><text fill="#000000" font-family="sans-serif" font-size="13" lengthAdjust="spacing" textLength="100" x="551" y="536.3738">generateMethod</text><polygon fill="#181818" points="326,549.1223,316,553.1223,326,557.1223,322,553.1223" style="stroke:#181818;stroke-width:1.0;"/><line style="stroke:#181818;stroke-width:1.0;stroke-dasharray:2.0,2.0;" x1="320" x2="528" y1="553.1223" y2="553.1223"/><text fill="#000000" font-family="sans-serif" font-size="13" lengthAdjust="spacing" textLength="41" x="332" y="569.2203">invoke</text><polygon fill="#181818" points="172,581.9688,162,585.9688,172,589.9688,168,585.9688" style="stroke:#181818;stroke-width:1.0;"/><line style="stroke:#181818;stroke-width:1.0;stroke-dasharray:2.0,2.0;" x1="166" x2="309" y1="585.9688" y2="585.9688"/><text fill="#000000" font-family="sans-serif" font-size="13" lengthAdjust="spacing" textLength="41" x="178" y="602.0667">invoke</text><polygon fill="#181818" points="70.5,614.8152,60.5,618.8152,70.5,622.8152,66.5,618.8152" style="stroke:#181818;stroke-width:1.0;"/><line style="stroke:#181818;stroke-width:1.0;stroke-dasharray:2.0,2.0;" x1="64.5" x2="155" y1="618.8152" y2="618.8152"/><text fill="#000000" font-family="sans-serif" font-size="13" lengthAdjust="spacing" textLength="41" x="76.5" y="634.9132">invoke</text><!--MD5=[3a5d83754578b8e9d5c75d0dd20ebb05]
@startuml
skinparam responseMessageBelowArrow true
TestReflection -> TestReflection: main
activate TestReflection
TestReflection -> Method: invoke
activate Method
Method -> DelegatingMethodAccessorImpl: invoke
activate DelegatingMethodAccessorImpl
DelegatingMethodAccessorImpl -> NativeMethodAccessorImpl: invoke
activate NativeMethodAccessorImpl
NativeMethodAccessorImpl -> MethodAccessorGenerator: generateMethod
activate MethodAccessorGenerator
MethodAccessorGenerator -> MethodAccessorGenerator: generate
activate MethodAccessorGenerator
MethodAccessorGenerator -> AccessController: doPrivileged
activate AccessController
AccessController -> MethodAccessorGenerator1: run
activate MethodAccessorGenerator1
MethodAccessorGenerator1 -> MethodAccessorGenerator1: run
activate MethodAccessorGenerator1
MethodAccessorGenerator1 -> ClassDefiner: defineClass
activate ClassDefiner
ClassDefiner - -> MethodAccessorGenerator1: defineClass
deactivate ClassDefiner
deactivate MethodAccessorGenerator1
MethodAccessorGenerator1 - -> AccessController: run
deactivate MethodAccessorGenerator1
AccessController - -> MethodAccessorGenerator: doPrivileged
deactivate AccessController
deactivate MethodAccessorGenerator
MethodAccessorGenerator - -> NativeMethodAccessorImpl: generateMethod
deactivate MethodAccessorGenerator
NativeMethodAccessorImpl - -> DelegatingMethodAccessorImpl: invoke
deactivate NativeMethodAccessorImpl
DelegatingMethodAccessorImpl - -> Method: invoke
deactivate DelegatingMethodAccessorImpl
Method - -> TestReflection: invoke
deactivate Method
deactivate TestReflection
@enduml

PlantUML version 1.2022.13(Sat Nov 19 21:22:17 CST 2022)
(GPL source distribution)
Java Runtime: OpenJDK Runtime Environment
JVM: OpenJDK 64-Bit Server VM
Default Encoding: UTF-8
Language: zh
Country: CN
--></g></svg>